<svg width="50" height="50" viewBox="0 0 50 50" fill="none" xmlns="http://www.w3.org/2000/svg">
<path fill-rule="evenodd" clip-rule="evenodd" d="M29.4193 23.4023H35.1856C36.0599 23.4023 36.7469 22.6795 36.7469 21.8078C36.7469 20.9148 36.0599 20.2132 35.1856 20.2132H29.4193C28.5449 20.2132 27.858 20.9148 27.858 21.8078C27.858 22.6795 28.5449 23.4023 29.4193 23.4023ZM42.0345 12.3489C43.3043 12.3489 44.137 12.7954 44.9697 13.7734C45.8024 14.7514 45.9481 16.1546 45.7608 17.4281L43.7831 31.375C43.4084 34.056 41.1602 36.0311 38.5164 36.0311H15.8049C13.0363 36.0311 10.7464 33.8647 10.5174 31.0583L8.60222 7.88208L5.45883 7.3293C4.62615 7.18048 4.04327 6.35132 4.18899 5.50089C4.33471 4.63133 5.14658 4.05517 6.00008 4.18486L10.965 4.94812C11.6727 5.07781 12.1932 5.67098 12.2556 6.39384L12.6511 11.1562C12.7136 11.8387 13.2548 12.3489 13.921 12.3489H42.0345ZM15.4714 39.3914C13.7228 39.3914 12.3072 40.8371 12.3072 42.623C12.3072 44.3876 13.7228 45.8333 15.4714 45.8333C17.1992 45.8333 18.6148 44.3876 18.6148 42.623C18.6148 40.8371 17.1992 39.3914 15.4714 39.3914ZM38.8906 39.3914C37.142 39.3914 35.7264 40.8371 35.7264 42.623C35.7264 44.3876 37.142 45.8333 38.8906 45.8333C40.6185 45.8333 42.034 44.3876 42.034 42.623C42.034 40.8371 40.6185 39.3914 38.8906 39.3914Z" fill="#200E32"/>
</svg>
