<svg width="24" height="24" viewBox="0 0 24 24" fill="none" xmlns="http://www.w3.org/2000/svg">
<path fill-rule="evenodd" clip-rule="evenodd" d="M16.3345 2.7502H7.66549C4.64449 2.7502 2.75049 4.8892 2.75049 7.9162V16.0842C2.75049 19.1112 4.63549 21.2502 7.66549 21.2502H16.3335C19.3645 21.2502 21.2505 19.1112 21.2505 16.0842V7.9162C21.2505 4.8892 19.3645 2.7502 16.3345 2.7502Z" stroke="#200E32" stroke-width="1.5" stroke-linecap="round" stroke-linejoin="round"/>
<path fill-rule="evenodd" clip-rule="evenodd" d="M10.6925 12.0002C10.6925 13.0222 9.8635 13.8522 8.8405 13.8522C7.8185 13.8522 6.9895 13.0222 6.9895 12.0002C6.9895 10.9782 7.8185 10.1482 8.8405 10.1482C9.8635 10.1482 10.6925 10.9782 10.6925 12.0002Z" stroke="#200E32" stroke-width="1.5" stroke-linecap="round" stroke-linejoin="round"/>
<path d="M10.6924 12.0002H17.0104V13.8522" stroke="#200E32" stroke-width="1.5" stroke-linecap="round" stroke-linejoin="round"/>
<path d="M14.1816 13.8517V11.9997" stroke="#200E32" stroke-width="1.5" stroke-linecap="round" stroke-linejoin="round"/>
</svg>
