<svg width="101" height="101" viewBox="0 0 101 101" fill="none" xmlns="http://www.w3.org/2000/svg">
<path d="M35.0773 50.5606C30.1687 55.1662 31.3807 62.6806 24.0784 67.4276C20.3818 69.8415 17.0084 75.7399 19.0284 83.3957C21.0484 91.0515 30.9464 94.5966 38.2184 92.2635C42.2141 90.8885 46.4058 90.1689 50.6313 90.1324C54.8568 90.1689 59.0485 90.8885 63.0442 92.2635C70.3465 94.5966 80.2748 91.0515 82.2342 83.3957C84.1936 75.7399 80.8909 69.8415 77.1842 67.4276C69.8516 62.6301 71.1242 55.146 66.1853 50.5606C64.3212 48.8185 62.2916 47.2624 60.1253 45.9146C57.2543 44.1247 53.9388 43.1759 50.5555 43.1759C47.1723 43.1759 43.8568 44.1247 40.9858 45.9146C38.8727 47.2714 36.8942 48.8271 35.0773 50.5606Z" fill="#219897"/>
<path d="M76.8566 25.9295C78.5303 16.8168 75.3272 8.59201 69.7021 7.55884C64.0771 6.52567 58.1602 13.0754 56.4865 22.1881C54.8127 31.3008 58.0159 39.5256 63.6409 40.5588C69.266 41.5919 75.1828 35.0422 76.8566 25.9295Z" fill="#219897"/>
<path d="M92.554 52.1084C96.9185 46.2826 97.5435 39.3773 93.9498 36.6849C90.3561 33.9926 83.9047 36.5328 79.5401 42.3586C75.1755 48.1843 74.5505 55.0896 78.1442 57.782C81.7379 60.4743 88.1894 57.9342 92.554 52.1084Z" fill="#219897"/>
<path d="M37.5856 40.3975C43.231 39.3604 46.4454 31.1056 44.7652 21.96C43.085 12.8144 37.1465 6.24124 31.5011 7.27838C25.8558 8.31552 22.6414 16.5703 24.3215 25.7158C26.0017 34.8614 31.9402 41.4346 37.5856 40.3975Z" fill="#219897"/>
<path d="M23.1853 57.7852C26.779 55.0928 26.1541 48.1875 21.7895 42.3617C17.4249 36.5359 10.9734 33.9958 7.37975 36.6881C3.78606 39.3804 4.41101 46.2858 8.7756 52.1115C13.1402 57.9373 19.5917 60.4775 23.1853 57.7852Z" fill="#219897"/>
</svg>
