<svg width="18" height="18" viewBox="0 0 18 18" fill="none" xmlns="http://www.w3.org/2000/svg">
<path d="M13.4389 10.7401C13.2447 10.9283 13.1554 11.2006 13.1997 11.4676L13.8664 15.1576C13.9227 15.4703 13.7907 15.7868 13.5289 15.9676C13.2724 16.1551 12.9312 16.1776 12.6514 16.0276L9.32966 14.2951C9.21416 14.2336 9.08591 14.2006 8.95466 14.1968H8.75141C8.68091 14.2073 8.61191 14.2298 8.54891 14.2643L5.22641 16.0051C5.06216 16.0876 4.87616 16.1168 4.69391 16.0876C4.24991 16.0036 3.95366 15.5806 4.02641 15.1343L4.69391 11.4443C4.73816 11.1751 4.64891 10.9013 4.45466 10.7101L1.74641 8.08508C1.51991 7.86533 1.44116 7.53533 1.54466 7.23758C1.64516 6.94058 1.90166 6.72383 2.21141 6.67508L5.93891 6.13433C6.22241 6.10508 6.47141 5.93258 6.59891 5.67758L8.24141 2.31008C8.28041 2.23508 8.33066 2.16608 8.39141 2.10758L8.45891 2.05508C8.49416 2.01608 8.53466 1.98383 8.57966 1.95758L8.66141 1.92758L8.78891 1.87508H9.10466C9.38666 1.90433 9.63491 2.07308 9.76466 2.32508L11.4289 5.67758C11.5489 5.92283 11.7822 6.09308 12.0514 6.13433L15.7789 6.67508C16.0939 6.72008 16.3572 6.93758 16.4614 7.23758C16.5597 7.53833 16.4749 7.86833 16.2439 8.08508L13.4389 10.7401Z" fill="#D3D3D3"/>
</svg>
